<svg width="1440" height="960" viewBox="0 0 1440 960" fill="none" xmlns="http://www.w3.org/2000/svg">
  <rect width="1440" height="960" fill="#020309"/>
  <radialGradient id="blueGlow" cx="0" cy="0" r="1" gradientUnits="userSpaceOnUse" gradientTransform="translate(290 170) rotate(45) scale(430)">
    <stop stop-color="#0EA5E9" stop-opacity="0.42"/>
    <stop offset="1" stop-color="#0EA5E9" stop-opacity="0"/>
  </radialGradient>
  <radialGradient id="purpleGlow" cx="0" cy="0" r="1" gradientUnits="userSpaceOnUse" gradientTransform="translate(1040 120) rotate(135) scale(460)">
    <stop stop-color="#7C3AED" stop-opacity="0.48"/>
    <stop offset="1" stop-color="#7C3AED" stop-opacity="0"/>
  </radialGradient>
  <radialGradient id="greenGlow" cx="0" cy="0" r="1" gradientUnits="userSpaceOnUse" gradientTransform="translate(980 780) rotate(45) scale(420)">
    <stop stop-color="#10B981" stop-opacity="0.32"/>
    <stop offset="1" stop-color="#10B981" stop-opacity="0"/>
  </radialGradient>
  <rect width="1440" height="960" fill="url(#blueGlow)"/>
  <rect width="1440" height="960" fill="url(#purpleGlow)"/>
  <rect width="1440" height="960" fill="url(#greenGlow)"/>
  <g opacity="0.75">
    <circle cx="70" cy="86" r="1.5" fill="white"/>
    <circle cx="182" cy="210" r="1" fill="#BAE6FD"/>
    <circle cx="304" cy="70" r="1.2" fill="white"/>
    <circle cx="475" cy="186" r="1" fill="#DDD6FE"/>
    <circle cx="620" cy="94" r="1.4" fill="white"/>
    <circle cx="790" cy="240" r="1" fill="#A7F3D0"/>
    <circle cx="930" cy="88" r="1.3" fill="white"/>
    <circle cx="1120" cy="205" r="1" fill="#BAE6FD"/>
    <circle cx="1290" cy="112" r="1.6" fill="white"/>
    <circle cx="1356" cy="300" r="1" fill="#DDD6FE"/>
    <circle cx="110" cy="430" r="1.1" fill="white"/>
    <circle cx="265" cy="585" r="1.4" fill="#BAE6FD"/>
    <circle cx="510" cy="705" r="1" fill="white"/>
    <circle cx="732" cy="630" r="1.2" fill="#DDD6FE"/>
    <circle cx="920" cy="845" r="1.4" fill="white"/>
    <circle cx="1185" cy="705" r="1" fill="#A7F3D0"/>
    <circle cx="1320" cy="830" r="1.5" fill="white"/>
  </g>
  <line x1="1125" y1="328" x2="1180" y2="296" stroke="white" stroke-opacity="0.22" stroke-width="2"/>
  <line x1="190" y1="742" x2="248" y2="710" stroke="#BAE6FD" stroke-opacity="0.22" stroke-width="2"/>

  <rect x="120" y="64" width="1200" height="92" rx="30" fill="white" fill-opacity="0.08" stroke="white" stroke-opacity="0.16"/>
  <rect x="146" y="88" width="44" height="44" rx="16" fill="#22D3EE" fill-opacity="0.14" stroke="#67E8F9" stroke-opacity="0.45"/>
  <text x="160" y="118" fill="#CFFAFE" font-family="Arial, sans-serif" font-size="24" font-weight="800">U</text>
  <text x="212" y="104" fill="white" font-family="Arial, sans-serif" font-size="22" font-weight="700">Utility Command</text>
  <text x="212" y="128" fill="#A5F3FC" fill-opacity="0.62" font-family="Arial, sans-serif" font-size="12" letter-spacing="5">SPACE TOOLS</text>
  <rect x="915" y="88" width="78" height="40" rx="20" fill="#0EA5E9" fill-opacity="0.15" stroke="#7DD3FC" stroke-opacity="0.38"/>
  <text x="938" y="113" fill="white" font-family="Arial, sans-serif" font-size="14">Home</text>
  <rect x="1008" y="88" width="122" height="40" rx="20" fill="white" fill-opacity="0.06" stroke="white" stroke-opacity="0.12"/>
  <text x="1034" y="113" fill="#CBD5E1" font-family="Arial, sans-serif" font-size="14">PDF Merge</text>
  <rect x="1145" y="88" width="145" height="40" rx="20" fill="white" fill-opacity="0.06" stroke="white" stroke-opacity="0.12"/>
  <text x="1171" y="113" fill="#CBD5E1" font-family="Arial, sans-serif" font-size="14">VTT Converter</text>

  <rect x="120" y="220" width="700" height="420" rx="38" fill="white" fill-opacity="0.09" stroke="white" stroke-opacity="0.16"/>
  <path d="M120 262C290 230 410 304 560 250C660 214 736 224 820 248V220H120V262Z" fill="white" fill-opacity="0.05"/>
  <text x="168" y="294" fill="#A7F3D0" font-family="Arial, sans-serif" font-size="14" font-weight="700" letter-spacing="6">BROWSER UTILITIES</text>
  <text x="168" y="372" fill="white" font-family="Arial, sans-serif" font-size="64" font-weight="900">Tools for the</text>
  <text x="168" y="448" fill="white" font-family="Arial, sans-serif" font-size="64" font-weight="900">quiet side</text>
  <text x="168" y="524" fill="white" font-family="Arial, sans-serif" font-size="64" font-weight="900">of orbit.</text>
  <text x="170" y="572" fill="#CBD5E1" font-family="Arial, sans-serif" font-size="20">A compact command deck for everyday file and transcript utilities.</text>
  <rect x="168" y="610" width="172" height="52" rx="26" fill="url(#buttonGradient)"/>
  <linearGradient id="buttonGradient" x1="168" y1="610" x2="340" y2="662" gradientUnits="userSpaceOnUse">
    <stop stop-color="#0EA5E9"/>
    <stop offset="1" stop-color="#7C3AED"/>
  </linearGradient>
  <text x="206" y="643" fill="white" font-family="Arial, sans-serif" font-size="16" font-weight="800">Explore utilities</text>

  <rect x="862" y="220" width="458" height="188" rx="34" fill="#0EA5E9" fill-opacity="0.13" stroke="#7DD3FC" stroke-opacity="0.32"/>
  <text x="904" y="276" fill="#BAE6FD" font-family="Arial, sans-serif" font-size="13" font-weight="700" letter-spacing="5">PLACEHOLDER</text>
  <text x="904" y="326" fill="white" font-family="Arial, sans-serif" font-size="36" font-weight="800">PDF Merge</text>
  <text x="904" y="366" fill="#E2E8F0" fill-opacity="0.82" font-family="Arial, sans-serif" font-size="18">Combine PDFs into a single cockpit-ready queue.</text>

  <rect x="862" y="448" width="458" height="188" rx="34" fill="#10B981" fill-opacity="0.13" stroke="#6EE7B7" stroke-opacity="0.32"/>
  <text x="904" y="504" fill="#A7F3D0" font-family="Arial, sans-serif" font-size="13" font-weight="700" letter-spacing="5">PLACEHOLDER</text>
  <text x="904" y="554" fill="white" font-family="Arial, sans-serif" font-size="36" font-weight="800">VTT Converter</text>
  <text x="904" y="594" fill="#E2E8F0" fill-opacity="0.82" font-family="Arial, sans-serif" font-size="18">Turn captions into readable transcripts.</text>

  <rect x="120" y="700" width="374" height="120" rx="28" fill="white" fill-opacity="0.08" stroke="#7DD3FC" stroke-opacity="0.22"/>
  <text x="156" y="748" fill="#CBD5E1" fill-opacity="0.72" font-family="Arial, sans-serif" font-size="12" letter-spacing="5">ROUTES</text>
  <text x="156" y="790" fill="white" font-family="Arial, sans-serif" font-size="42" font-weight="900">3</text>
  <rect x="534" y="700" width="374" height="120" rx="28" fill="white" fill-opacity="0.08" stroke="#C084FC" stroke-opacity="0.22"/>
  <text x="570" y="748" fill="#CBD5E1" fill-opacity="0.72" font-family="Arial, sans-serif" font-size="12" letter-spacing="5">THEME</text>
  <text x="570" y="790" fill="white" font-family="Arial, sans-serif" font-size="42" font-weight="900">Space</text>
  <rect x="948" y="700" width="372" height="120" rx="28" fill="white" fill-opacity="0.08" stroke="#6EE7B7" stroke-opacity="0.22"/>
  <text x="984" y="748" fill="#CBD5E1" fill-opacity="0.72" font-family="Arial, sans-serif" font-size="12" letter-spacing="5">STATUS</text>
  <text x="984" y="790" fill="white" font-family="Arial, sans-serif" font-size="42" font-weight="900">Ready</text>
</svg>
